<svg xmlns="http://www.w3.org/2000/svg" viewBox="0 0 293 84.9">
  <path d="M15.8,59.8H3L18,0h12.8l-6.1,25c2.9-1.9,5.7-3.2,8.2-4c2.5-0.8,5.3-1.3,8.2-1.3c3.9,0,7,0.9,9.3,2.8
			c2.3,1.8,3.4,4.2,3.4,7.2c-0.1,1.6-0.6,4-1.4,7.3l-6,22.9H33.5l6.1-23.3c0.7-2.5,1.1-4.1,1.1-4.9c0-1.3-0.5-2.4-1.5-3.2
			c-1-0.8-2.4-1.2-4.1-1.2c-2.2,0-4.3,0.6-6.3,1.9c-2.6,1.6-4.6,3.6-6,6c-0.8,1.3-1.7,4.4-3,9.2L15.8,59.8z
M72.3,40.9c3.2-0.4,5.6-0.9,7.4-1.6c1.7-0.7,3.5-1.7,5.1-3.2c1.6-1.4,3.1-3.3,4.3-5.5
			c1.2-2.2,1.8-4.3,1.8-6.2c0-0.8-0.3-1.5-0.8-2c-0.6-0.5-1.3-0.7-2.1-0.7c-1.7,0-3.7,1-5.8,3C78.2,28.3,74.9,33.7,72.3,40.9
			 M71.8,43.2c-0.3,1.9-0.5,3.5-0.5,4.7c0,2.2,0.8,4,2.4,5.3c1.6,1.3,3.7,2,6.3,2c2.5,0,5-0.4,7.6-1.3c2.6-0.9,5.5-2.4,8.8-4.7
			l1.6,1.1c-4.1,3.8-8.1,6.6-12,8.2c-3.9,1.7-8.2,2.5-13,2.5c-6,0-10.1-1.2-12.4-3.6c-2.3-2.4-3.4-5.1-3.4-8.2
			c0-4.8,1.7-9.7,5.1-14.5c3.4-4.9,8.1-8.7,14-11.6c5.9-2.9,11.8-4.4,17.8-4.4c3,0,5.3,0.6,6.9,1.8c1.5,1.2,2.3,2.7,2.3,4.5
			c0,2.2-0.8,4.3-2.3,6.3c-2.1,2.8-4.7,5-7.9,6.7c-3.2,1.7-6.7,3-10.6,3.9C79.8,42.4,76.2,42.9,71.8,43.2
M121.2,40.9c3.2-0.4,5.6-0.9,7.4-1.6c1.7-0.7,3.4-1.7,5.1-3.2c1.7-1.4,3.1-3.3,4.3-5.5
			c1.2-2.2,1.8-4.3,1.8-6.2c0-0.8-0.3-1.5-0.8-2c-0.6-0.5-1.3-0.7-2.1-0.7c-1.7,0-3.7,1-5.8,3C127.2,28.3,123.9,33.7,121.2,40.9
			 M120.8,43.2c-0.3,1.9-0.5,3.5-0.5,4.7c0,2.2,0.8,4,2.3,5.3c1.6,1.3,3.7,2,6.3,2c2.5,0,5-0.4,7.6-1.3c2.5-0.9,5.5-2.4,8.8-4.7
			l1.6,1.1c-4.1,3.8-8.1,6.6-12,8.2c-3.9,1.7-8.2,2.5-13,2.5c-6,0-10.1-1.2-12.4-3.6c-2.3-2.4-3.4-5.1-3.4-8.2
			c0-4.8,1.7-9.7,5.1-14.5c3.4-4.9,8.1-8.7,14-11.6c5.9-2.9,11.8-4.4,17.8-4.4c3,0,5.3,0.6,6.8,1.8c1.5,1.2,2.3,2.7,2.3,4.5
			c0,2.2-0.8,4.3-2.3,6.3c-2.1,2.8-4.7,5-7.8,6.7c-3.2,1.7-6.7,3-10.6,3.9C128.7,42.4,125.2,42.9,120.8,43.2

M163.2,20.6h12l-1.9,7.4c4.5-5.6,9.3-8.4,14.5-8.4c1.9,0,3.8,0.4,5.9,1.1l-4.9,8.6c-1.2-0.3-2.4-0.5-3.7-0.5
			c-2.2,0-4.5,0.7-6.8,2.1c-2.3,1.4-4.1,3.2-5.4,5.5c-1.3,2.3-2.6,6-3.8,11L166,59.8h-12.8L163.2,20.6z
M206.5,5.7h12.8l-2.4,9.6H204L206.5,5.7z M202.6,20.6h12.8l-10,39.2h-12.8L202.6,20.6
M226.3,20.6h12.1l-1.1,4.7c4.7-3.8,9.7-5.6,14.9-5.6c3.6,0,6.4,0.6,8.3,1.8c1.9,1.2,3.2,2.9,3.7,5.1c1.7-2,4-3.6,7.1-4.9
			c3.1-1.3,6.3-2,9.6-2c3.8,0,6.8,0.8,8.9,2.5c2.1,1.7,3.2,3.9,3.2,6.7c0,1.3-0.5,3.7-1.4,7l-6.3,23.9h-12.8l6.2-23.9
			c0.7-3,1.1-4.7,1.2-5.1c0-1.1-0.4-2-1.2-2.6c-0.8-0.6-2-1-3.6-1c-3.2,0-6.1,1.4-8.7,4.2c-1.9,2-3.4,5.5-4.7,10.6l-4.5,17.8h-12.8
			l6-23.7c0.7-2.7,1-4.5,1-5.3c0-1-0.4-1.9-1.3-2.5c-0.9-0.7-2-1-3.5-1c-1.4,0-2.9,0.3-4.4,1c-1.5,0.7-2.8,1.6-4,2.9
			c-1.1,1.2-2.1,2.8-2.9,4.7c-0.4,0.9-1,2.9-1.8,6l-4.6,18h-12.8L226.3,20.6z

M13.8,78l-1.2-8.2L7.1,78H13.8z M17.3,84.5h-2.6l-0.6-4.6H5.8l-3.1,4.6H0L11.4,68h3.4L17.3,84.5
M31.5,74.3h-0.1c-0.3-0.1-0.7-0.1-1-0.2c-0.3,0-0.7,0-1.1,0c-0.8,0-1.6,0.2-2.4,0.5c-0.8,0.3-1.6,0.7-2.3,1.1l-2.4,8.8
  h-2.5l3.3-12.4h2.5l-0.5,1.8c1.1-0.7,2.1-1.2,2.9-1.4c0.8-0.3,1.6-0.4,2.3-0.4c0.4,0,0.7,0,0.9,0c0.2,0,0.5,0.1,0.8,0.1L31.5,74.3
  z
M37.4,84.7c-0.9,0-1.7-0.1-2.4-0.3c-0.7-0.2-1.3-0.5-1.8-0.9c-0.5-0.4-0.9-0.9-1.2-1.4c-0.3-0.6-0.4-1.3-0.4-2
  c0-1.2,0.2-2.2,0.6-3.2c0.4-1,1-1.9,1.8-2.6c0.8-0.7,1.7-1.3,2.8-1.8c1.1-0.4,2.3-0.7,3.6-0.7c0.8,0,1.6,0.1,2.4,0.3
  c0.8,0.2,1.4,0.4,1.9,0.7L44.1,75H44c-0.1-0.1-0.4-0.3-0.7-0.4c-0.2-0.2-0.5-0.3-0.9-0.5c-0.3-0.2-0.7-0.3-1.1-0.4
  c-0.4-0.1-0.9-0.1-1.5-0.1c-1.7,0-3,0.6-4.1,1.8c-1,1.2-1.6,2.7-1.6,4.4c0,1.1,0.3,1.8,0.9,2.4c0.6,0.5,1.5,0.8,2.7,0.8
  c0.5,0,1.1-0.1,1.6-0.2c0.6-0.1,1-0.3,1.4-0.4c0.4-0.2,0.8-0.3,1.2-0.5c0.4-0.2,0.6-0.3,0.8-0.4h0.2l-0.5,2.3
  c-0.8,0.3-1.5,0.5-2.4,0.8C39.1,84.6,38.2,84.7,37.4,84.7
M59.3,74.9c0,0.2,0,0.4-0.1,0.7c0,0.3-0.1,0.6-0.1,0.8l-2.2,8h-2.4l1.9-7.1c0.1-0.4,0.2-0.7,0.2-1c0-0.3,0.1-0.6,0.1-0.8
  c0-0.6-0.2-1.1-0.6-1.4c-0.3-0.3-1-0.5-1.9-0.5c-0.7,0-1.4,0.1-2.2,0.5c-0.8,0.3-1.5,0.7-2.3,1.1l-2.5,9.2h-2.4l4.6-17.2h2.4
  l-1.7,6.2c0.9-0.6,1.8-1,2.6-1.3c0.8-0.3,1.6-0.4,2.5-0.4c1.3,0,2.3,0.3,2.9,0.8C59,73.1,59.3,73.9,59.3,74.9
M68.7,67.9L68.1,70h-2.8l0.6-2.1H68.7z M67.4,72.1L64,84.5h-2.4l3.3-12.4H67.4
M79.7,72.1l-0.4,1.7h-5l-1.5,5.7c-0.1,0.3-0.2,0.6-0.2,1c-0.1,0.4-0.1,0.7-0.1,0.9c0,0.5,0.2,0.9,0.5,1.2
  c0.3,0.2,0.9,0.4,1.8,0.4c0.3,0,0.8-0.1,1.3-0.2c0.5-0.1,0.8-0.2,1-0.2h0.1l-0.5,1.8c-0.5,0.1-1,0.2-1.5,0.3
  c-0.5,0.1-1,0.1-1.4,0.1c-1.2,0-2.1-0.2-2.7-0.7c-0.7-0.5-1-1.2-1-2.1c0-0.2,0-0.5,0.1-0.7c0-0.2,0.1-0.5,0.2-0.8l1.8-6.6h-1.6
  l0.4-1.7h1.6l0.9-3.5h2.4l-1,3.5H79.7z
M90.9,76.9c0.1-0.2,0.1-0.4,0.1-0.6c0-0.1,0-0.3,0-0.5c0-0.8-0.3-1.4-0.8-1.9c-0.5-0.4-1.3-0.7-2.4-0.7
  c-1.2,0-2.3,0.3-3.2,1c-1,0.7-1.6,1.5-1.9,2.6H90.9z M86.1,84.7c-2,0-3.6-0.4-4.7-1.2c-1.1-0.8-1.7-2-1.7-3.5
  c0-2.3,0.8-4.2,2.5-5.8c1.7-1.6,3.7-2.4,6.2-2.4c1.6,0,2.9,0.3,3.7,1c0.9,0.7,1.3,1.7,1.3,2.9c0,0.2-0.1,0.6-0.1,1
  c-0.1,0.5-0.2,1-0.4,1.7H82.3c0,0.2-0.1,0.4-0.1,0.6c0,0.2,0,0.4,0,0.6c0,1,0.4,1.9,1.1,2.4c0.7,0.6,1.8,0.9,3.1,0.9
  c0.9,0,1.9-0.2,2.9-0.5c1-0.3,1.9-0.7,2.5-1.1h0.1l-0.5,2.3c-0.4,0.1-0.8,0.2-1.2,0.3c-0.4,0.1-0.8,0.2-1.3,0.3
  c-0.5,0.1-1,0.2-1.4,0.3C87.2,84.7,86.7,84.7,86.1,84.7
M101.3,84.7c-0.9,0-1.7-0.1-2.4-0.3c-0.7-0.2-1.3-0.5-1.8-0.9c-0.5-0.4-0.9-0.9-1.1-1.4c-0.3-0.6-0.4-1.3-0.4-2
  c0-1.2,0.2-2.2,0.6-3.2c0.4-1,1-1.9,1.8-2.6c0.7-0.7,1.7-1.3,2.8-1.8c1.1-0.4,2.3-0.7,3.6-0.7c0.8,0,1.6,0.1,2.4,0.3
  c0.8,0.2,1.4,0.4,2,0.7L108,75h-0.1c-0.2-0.1-0.4-0.3-0.7-0.4c-0.3-0.2-0.6-0.3-0.9-0.5c-0.3-0.2-0.7-0.3-1.2-0.4
  c-0.4-0.1-0.9-0.1-1.5-0.1c-1.7,0-3,0.6-4.1,1.8c-1,1.2-1.6,2.7-1.6,4.4c0,1.1,0.3,1.8,0.9,2.4c0.6,0.5,1.5,0.8,2.6,0.8
  c0.5,0,1.1-0.1,1.6-0.2c0.5-0.1,1-0.3,1.4-0.4c0.4-0.2,0.8-0.3,1.2-0.5c0.4-0.2,0.6-0.3,0.8-0.4h0.1l-0.5,2.3
  c-0.8,0.3-1.5,0.5-2.4,0.8C103,84.6,102.1,84.7,101.3,84.7
M119.6,72.1l-0.5,1.7h-5l-1.5,5.7c-0.1,0.3-0.1,0.6-0.2,1c-0.1,0.4-0.1,0.7-0.1,0.9c0,0.5,0.2,0.9,0.5,1.2
  c0.3,0.2,0.9,0.4,1.8,0.4c0.3,0,0.8-0.1,1.3-0.2c0.5-0.1,0.8-0.2,1-0.2h0.1l-0.4,1.8c-0.5,0.1-1,0.2-1.5,0.3
  c-0.6,0.1-1,0.1-1.5,0.1c-1.2,0-2.1-0.2-2.7-0.7c-0.7-0.5-1-1.2-1-2.1c0-0.2,0-0.5,0-0.7c0-0.2,0.1-0.5,0.2-0.8l1.8-6.6h-1.6
  l0.5-1.7h1.6l0.9-3.5h2.4l-0.9,3.5H119.6z
M123.7,84.7c-1.1,0-2-0.1-2.9-0.3c-0.9-0.2-1.6-0.5-2.1-0.8l0.5-2.2h0.1c0.2,0.1,0.4,0.3,0.7,0.5c0.3,0.2,0.7,0.4,1.1,0.5
  c0.4,0.2,0.9,0.3,1.4,0.5c0.5,0.1,1.1,0.2,1.7,0.2c1.2,0,2.2-0.2,2.9-0.6c0.7-0.4,1-1,1-1.7c0-0.4-0.2-0.7-0.5-0.9
  c-0.4-0.2-0.9-0.4-1.5-0.5c-0.3-0.1-0.7-0.1-1.2-0.2c-0.5-0.1-1-0.2-1.4-0.3c-1-0.2-1.8-0.6-2.2-1.1c-0.5-0.4-0.7-1-0.7-1.7
  c0-0.6,0.1-1.1,0.4-1.6c0.3-0.5,0.7-1,1.3-1.4c0.5-0.4,1.2-0.7,2.1-1c0.9-0.2,1.8-0.4,2.9-0.4c0.8,0,1.7,0.1,2.6,0.3
  c0.8,0.2,1.5,0.4,2.1,0.7l-0.5,2.1h-0.1c-0.1-0.1-0.3-0.2-0.6-0.4c-0.3-0.2-0.6-0.3-1.1-0.5c-0.4-0.1-0.8-0.3-1.3-0.4
  c-0.5-0.1-1-0.1-1.5-0.1c-1.1,0-2,0.2-2.7,0.6c-0.7,0.4-1,0.9-1,1.6c0,0.4,0.2,0.7,0.5,0.9c0.3,0.2,0.8,0.4,1.5,0.6
  c0.4,0.1,0.8,0.2,1.3,0.2c0.4,0.1,0.9,0.2,1.3,0.3c1,0.2,1.8,0.5,2.3,1c0.5,0.4,0.8,1,0.8,1.7c0,0.6-0.2,1.1-0.5,1.7
  c-0.3,0.5-0.8,1-1.4,1.4c-0.6,0.4-1.4,0.8-2.2,1C125.7,84.6,124.8,84.7,123.7,84.7

M153.1,72.9c0.2-0.3,0.4-0.6,0.5-1c0.1-0.4,0.2-0.7,0.2-1.1c0-0.6-0.3-1-0.7-1.4c-0.5-0.3-1-0.5-1.6-0.5
					c-0.9,0-1.7,0.3-2.3,0.8c-0.6,0.5-0.9,1.2-0.9,2c0,0.4,0.1,0.8,0.4,1.2c0.3,0.4,0.8,0.9,1.5,1.4c0.7-0.2,1.3-0.4,1.7-0.6
					C152.4,73.5,152.8,73.2,153.1,72.9 M153.7,81l-4.9-5.1c-0.2,0.1-0.6,0.3-1,0.5c-0.5,0.3-0.8,0.5-1.1,0.8c-0.3,0.3-0.6,0.7-0.9,1.2
					c-0.2,0.5-0.4,1-0.4,1.6c0,0.9,0.3,1.6,0.9,2.2c0.6,0.5,1.5,0.8,2.6,0.8c0.8,0,1.6-0.2,2.5-0.5C152.2,82.2,153,81.7,153.7,81
					 M160.1,84.5h-3l-2.4-2.4c-1.1,1-2.3,1.7-3.4,2.2c-1.1,0.4-2.2,0.6-3.4,0.6c-1.6,0-2.8-0.3-3.8-1.1c-1-0.7-1.5-1.7-1.5-2.8
					c0-0.8,0.2-1.4,0.4-2.1c0.3-0.6,0.7-1.1,1.2-1.6c0.5-0.5,1-0.9,1.6-1.2c0.6-0.3,1.2-0.7,1.8-0.9c-0.5-0.4-1-0.9-1.4-1.4
					c-0.4-0.5-0.6-1-0.6-1.6c0-0.5,0.1-1.1,0.4-1.6c0.2-0.5,0.6-1,1.2-1.4c0.5-0.4,1.2-0.8,2-1c0.8-0.3,1.7-0.4,2.7-0.4
					c1.4,0,2.4,0.3,3.3,0.9c0.8,0.6,1.2,1.3,1.2,2.2c0,0.3,0,0.7-0.2,1.1c-0.1,0.4-0.4,0.9-0.8,1.2c-0.4,0.5-0.9,0.9-1.6,1.3
					c-0.7,0.4-1.6,0.7-2.7,0.9l3.9,4.1c0.4-0.6,0.8-1.3,1.1-2.2c0.3-0.9,0.5-1.8,0.7-2.7h2.6l-0.3,1c-0.2,0.9-0.6,1.7-1.1,2.6
					c-0.5,0.9-1.1,1.7-1.9,2.5L160.1,84.5

M184,72.3c0-0.4-0.1-0.7-0.2-1.1c-0.2-0.3-0.4-0.6-0.7-0.8c-0.4-0.3-0.8-0.4-1.3-0.5c-0.5-0.1-1.2-0.2-2-0.2h-2.4
  l-1.8,6.7h2.3c1,0,1.9-0.1,2.6-0.2c0.7-0.2,1.3-0.4,1.8-0.8c0.6-0.4,1-0.9,1.3-1.4C183.9,73.5,184,73,184,72.3 M184.1,76.6
  c-0.8,0.6-1.7,1-2.6,1.3c-1,0.3-2.2,0.4-3.5,0.4h-2.8l-1.7,6.2h-2.6l4.4-16.5h5.1c1.2,0,2.1,0.1,2.9,0.2c0.7,0.2,1.4,0.4,1.9,0.8
  c0.5,0.3,0.9,0.7,1.2,1.2c0.3,0.5,0.4,1,0.4,1.7c0,0.9-0.2,1.7-0.7,2.6C185.6,75.3,185,76,184.1,76.6

M204.4,78c-1.3,0-2.5,0.1-3.5,0.3c-1,0.1-1.9,0.3-2.5,0.5c-0.7,0.3-1.2,0.6-1.6,1c-0.4,0.4-0.5,0.9-0.5,1.6
  c0,0.5,0.2,0.9,0.6,1.2c0.4,0.3,1.1,0.4,2,0.4c0.8,0,1.6-0.2,2.4-0.5c0.8-0.3,1.6-0.7,2.3-1.1L204.4,78z M203,83.1
  c-0.2,0.1-0.5,0.3-1,0.5c-0.4,0.2-0.8,0.4-1.2,0.6c-0.4,0.2-0.9,0.3-1.5,0.4c-0.6,0.1-1.2,0.2-1.9,0.2c-1.1,0-2.1-0.3-2.8-0.8
  c-0.7-0.6-1.1-1.3-1.1-2.3c0-1,0.3-1.8,0.8-2.5c0.5-0.7,1.2-1.2,2.2-1.7c1-0.4,2.1-0.7,3.5-0.9c1.4-0.2,2.9-0.3,4.7-0.4
  c0.1-0.2,0.1-0.4,0.2-0.5c0-0.2,0.1-0.3,0.1-0.5c0-0.3-0.1-0.6-0.3-0.9c-0.2-0.2-0.4-0.4-0.7-0.5c-0.3-0.1-0.6-0.2-1-0.3
  c-0.4,0-0.9-0.1-1.3-0.1c-0.7,0-1.6,0.1-2.5,0.3c-0.9,0.2-1.7,0.4-2.3,0.6h-0.1l0.5-2.1c0.5-0.1,1.2-0.2,2.2-0.4
  c0.9-0.1,1.8-0.2,2.7-0.2c1.8,0,3.1,0.2,4,0.7c0.9,0.5,1.3,1.2,1.3,2.3c0,0.2,0,0.4,0,0.6c-0.1,0.2-0.1,0.4-0.1,0.7l-2.3,8.4h-2.4
  L203,83.1
193.7,67.2 189.1,84.5 186.7,84.5 191.3,67.2 193.7,67.2


M224.2,74.9c0,0.2,0,0.4-0.1,0.7c0,0.3-0.1,0.6-0.2,0.8l-2.2,8h-2.4l1.9-7.1c0.1-0.4,0.2-0.7,0.2-1
  c0.1-0.3,0.1-0.6,0.1-0.8c0-0.6-0.2-1.1-0.5-1.4c-0.3-0.3-1-0.5-1.9-0.5c-0.7,0-1.4,0.1-2.2,0.5c-0.8,0.3-1.6,0.7-2.3,1.1
  l-2.5,9.2h-2.4l3.3-12.4h2.4l-0.4,1.4c0.9-0.6,1.8-1,2.6-1.3c0.8-0.3,1.6-0.4,2.5-0.4c1.3,0,2.2,0.3,3,0.8
  C223.9,73.1,224.2,73.9,224.2,74.9
M240.9,74.9c0,0.2,0,0.4-0.1,0.7c0,0.3-0.1,0.6-0.2,0.8l-2.1,8h-2.4l1.9-7.1c0.1-0.4,0.2-0.7,0.3-1c0-0.3,0.1-0.6,0.1-0.8
  c0-0.6-0.2-1.1-0.5-1.4c-0.4-0.3-1-0.5-1.9-0.5c-0.7,0-1.4,0.1-2.2,0.5c-0.8,0.3-1.6,0.7-2.3,1.1l-2.5,9.2h-2.4l3.3-12.4h2.4
  l-0.4,1.4c0.9-0.6,1.8-1,2.6-1.3c0.8-0.3,1.6-0.4,2.5-0.4c1.3,0,2.3,0.3,3,0.8C240.6,73.1,240.9,73.9,240.9,74.9
M254.9,76.9c0-0.2,0.1-0.4,0.1-0.6c0-0.1,0-0.3,0-0.5c0-0.8-0.3-1.4-0.8-1.9c-0.5-0.4-1.3-0.7-2.5-0.7
  c-1.2,0-2.3,0.3-3.2,1c-0.9,0.7-1.6,1.5-1.9,2.6H254.9z M250,84.7c-2,0-3.5-0.4-4.7-1.2c-1.1-0.8-1.7-2-1.7-3.5
  c0-2.3,0.8-4.2,2.5-5.8c1.7-1.6,3.7-2.4,6.2-2.4c1.6,0,2.9,0.3,3.7,1c0.9,0.7,1.3,1.7,1.3,2.9c0,0.2,0,0.6-0.1,1
  c-0.1,0.5-0.2,1-0.4,1.7h-10.6c0,0.2-0.1,0.4-0.1,0.6c0,0.2,0,0.4,0,0.6c0,1,0.4,1.9,1.1,2.4c0.7,0.6,1.8,0.9,3.2,0.9
  c1,0,1.9-0.2,2.9-0.5c1-0.3,1.8-0.7,2.5-1.1h0.1l-0.5,2.3c-0.4,0.1-0.8,0.2-1.2,0.3c-0.3,0.1-0.8,0.2-1.3,0.3
  c-0.5,0.1-1,0.2-1.4,0.3C251.2,84.7,250.7,84.7,250,84.7
M270.6,74.3h-0.1c-0.3-0.1-0.7-0.1-1-0.2c-0.3,0-0.6,0-1.1,0c-0.8,0-1.6,0.2-2.4,0.5c-0.8,0.3-1.5,0.7-2.3,1.1l-2.3,8.8
  H259l3.3-12.4h2.4l-0.5,1.8c1.1-0.7,2.1-1.2,2.9-1.4c0.8-0.3,1.6-0.4,2.3-0.4c0.4,0,0.7,0,0.9,0c0.2,0,0.5,0.1,0.8,0.1L270.6,74.3
  z
M274.7,84.7c-1.1,0-2-0.1-2.9-0.3c-0.9-0.2-1.6-0.5-2.1-0.8l0.5-2.2h0.1c0.2,0.1,0.4,0.3,0.7,0.5c0.3,0.2,0.7,0.4,1.1,0.5
  c0.4,0.2,0.9,0.3,1.4,0.5c0.5,0.1,1.1,0.2,1.7,0.2c1.2,0,2.2-0.2,2.8-0.6c0.7-0.4,1-1,1-1.7c0-0.4-0.2-0.7-0.5-0.9
  c-0.4-0.2-0.9-0.4-1.5-0.5c-0.3-0.1-0.8-0.1-1.2-0.2c-0.5-0.1-1-0.2-1.4-0.3c-1-0.2-1.8-0.6-2.2-1.1c-0.5-0.4-0.7-1-0.7-1.7
  c0-0.6,0.1-1.1,0.4-1.6c0.3-0.5,0.7-1,1.3-1.4c0.5-0.4,1.3-0.7,2.1-1c0.8-0.2,1.8-0.4,2.9-0.4c0.9,0,1.7,0.1,2.6,0.3
  c0.9,0.2,1.5,0.4,2.1,0.7l-0.5,2.1h-0.1c-0.1-0.1-0.3-0.2-0.6-0.4c-0.3-0.2-0.6-0.3-1.1-0.5c-0.4-0.1-0.8-0.3-1.3-0.4
  c-0.5-0.1-1-0.1-1.6-0.1c-1.1,0-1.9,0.2-2.6,0.6c-0.7,0.4-1,0.9-1,1.6c0,0.4,0.2,0.7,0.5,0.9c0.3,0.2,0.8,0.4,1.5,0.6
  c0.4,0.1,0.8,0.2,1.3,0.2c0.5,0.1,0.9,0.2,1.3,0.3c1,0.2,1.8,0.5,2.3,1c0.5,0.4,0.8,1,0.8,1.7c0,0.6-0.2,1.1-0.5,1.7
  c-0.3,0.5-0.8,1-1.4,1.4c-0.6,0.4-1.3,0.8-2.2,1C276.8,84.6,275.8,84.7,274.7,84.7" fill="#ffffff"/>
</svg>